# xmcd CD database file
#
# Track frame offsets:
#	150
#	26772
#	49561
#	64687
#	84118
#	103851
#	120953
#	142726
#	175763
#	199174
#	218899
#
# Disc length: 3256 seconds
#
# Revision: 0
# Processed by: cddbd v1.5.2PL0 Copyright (c) Steve Scherf et al.
# Submitted via: CDex 1.70beta2
#
DISCID=8a0cb60b
DTITLE=[re:jazz] - Nipponized
DYEAR=2008
DGENRE=Jazz
TTITLE0=The Brigthness of These Days
TTITLE1=MG4BB
TTITLE2=Twiggy Twiggy Feat. Akiko
TTITLE3=Rita
TTITLE4=Threesome
TTITLE5=You'll See
TTITLE6=Luv Connection
TTITLE7=Bibo No Aozora
TTITLE8=Unit
TTITLE9=Skin Against Skin
TTITLE10=Emperor
EXTD=YEAR: 2008
EXTT0=
EXTT1=
EXTT2=
EXTT3=
EXTT4=
EXTT5=
EXTT6=
EXTT7=
EXTT8=
EXTT9=
EXTT10=
PLAYORDER=
